<?xml version="1.0" encoding="UTF-8"?>
<svg version="1.1" xmlns="http://www.w3.org/2000/svg" width="277" height="256">
<path d="M0 0 C1.49559651 -0.00079389 2.9911928 -0.00290034 4.48678589 -0.00619507 C8.50249027 -0.01127013 12.51793231 0.00209763 16.53359485 0.01933193 C20.78753095 0.03457958 25.04146656 0.03319927 29.29542542 0.03399658 C36.4526911 0.03767532 43.60986014 0.05255364 50.76708984 0.07519531 C59.84575615 0.10386397 68.92434411 0.11440665 78.0030508 0.11887741 C85.92217008 0.12291959 93.84127354 0.13542213 101.76038098 0.14922428 C104.24670642 0.15324821 106.73303137 0.1562113 109.21935844 0.15901947 C119.91188818 0.17331002 130.60338063 0.22573454 141.29516602 0.35644531 C142.44943769 0.3705479 142.44943769 0.3705479 143.62702799 0.38493538 C148.24982626 0.44513556 152.87161678 0.52625835 157.49356663 0.63354349 C158.92381042 0.66514458 160.3541638 0.69217834 161.78458679 0.71422338 C178.004746 0.97709503 178.004746 0.97709503 183.60766602 6.73144531 C186.87343999 11.81153817 187.5464287 15.70751 187.55586243 21.74842834 C187.55968797 22.48335666 187.56351352 23.21828497 187.56745499 23.97548383 C187.57775747 26.43335471 187.57379802 28.89099078 187.56982422 31.34887695 C187.57417243 33.113375 187.57935595 34.87787115 187.58531189 36.6423645 C187.59870689 41.43406491 187.5992796 46.22568645 187.59674859 51.01740193 C187.59567841 55.02287728 187.60056388 59.02833671 187.60535401 63.03380865 C187.61645267 72.49121983 187.61688573 81.94859131 187.61083984 91.40600586 C187.60481 101.1437902 187.61708506 110.88142969 187.63840991 120.61918932 C187.65606636 128.99139227 187.66202058 137.3635493 187.65877217 145.73577017 C187.65696433 150.73056977 187.65954478 155.72526624 187.67348671 160.7200489 C187.68612493 165.42409462 187.68406458 170.12791623 187.67107582 174.83195877 C187.66872283 176.55074707 187.67139848 178.26955143 187.67969894 179.9883213 C187.75188803 196.10979994 185.76006153 211.22442959 174.29907227 223.47753906 C167.54792559 229.80756158 160.21889736 233.93001836 151.29516602 236.35644531 C150.40473996 236.60807072 150.40473996 236.60807072 149.49632549 236.86477947 C140.4008912 239.06608243 131.11366944 238.64468223 121.81982422 238.63110352 C119.84943449 238.63545574 117.87904644 238.64064058 115.90866089 238.64659119 C110.58042137 238.65993299 105.25225298 238.66056556 99.92400002 238.65802789 C95.47044406 238.65695557 91.01690233 238.66184788 86.56334943 238.66663331 C76.05849807 238.67771038 65.55368249 238.67817509 55.04882812 238.67211914 C44.21737423 238.66607101 33.38604996 238.6784158 22.55461818 238.69968921 C13.24397241 238.7173022 3.93336793 238.72330731 -5.37729388 238.72005147 C-10.93356374 238.71823905 -16.48974097 238.72087139 -22.04599571 238.73476601 C-27.26717368 238.74733585 -32.48814905 238.74540817 -37.70932388 238.73235512 C-39.62372341 238.72998851 -41.53813717 238.73272705 -43.45252037 238.74097824 C-46.0684507 238.7514395 -48.68370032 238.74335032 -51.29960632 238.73066711 C-52.05447584 238.7380414 -52.80934536 238.74541568 -53.58708972 238.75301343 C-58.75846538 238.70037039 -62.19686799 237.71335258 -66.70483398 235.35644531 C-70.64360333 231.21037231 -71.81227481 228.01857328 -71.91015625 222.38891602 C-71.9300914 221.35401031 -71.95002655 220.31910461 -71.9705658 219.25283813 C-71.98728836 218.10753632 -72.00401093 216.9622345 -72.02124023 215.78222656 C-72.04211197 214.55941986 -72.0629837 213.33661316 -72.08448792 212.07675171 C-72.14014931 208.66189154 -72.19060754 205.24704499 -72.2374649 201.83205795 C-72.26735014 199.6677756 -72.29880548 197.50352038 -72.33050537 195.33926392 C-72.72945306 167.64984409 -72.81382182 139.95970302 -72.82777023 112.2677269 C-72.82982764 109.05385844 -72.83358739 105.8399956 -72.837677 102.62612915 C-72.84358223 97.50322134 -72.84364813 92.38034386 -72.83921623 87.25743484 C-72.83818718 85.363359 -72.83871767 83.46928153 -72.84097481 81.57520676 C-72.86358544 58.63154385 -72.85449194 35.89586823 -55.70483398 18.35644531 C-55.04483398 18.35644531 -54.38483398 18.35644531 -53.70483398 18.35644531 C-53.70483398 17.69644531 -53.70483398 17.03644531 -53.70483398 16.35644531 C-37.39952946 3.30212113 -20.6645098 -0.14438766 0 0 Z " fill="#8272FC" transform="translate(76.704833984375,10.6435546875)"/>
<path d="M0 0 C0.76695694 0.0028299 1.53391388 0.00565979 2.32411194 0.00857544 C4.74879246 0.01967775 7.17308934 0.04476283 9.59765625 0.0703125 C11.25194775 0.0803552 12.9062451 0.08947878 14.56054688 0.09765625 C18.59389548 0.11958433 22.62696105 0.15404407 26.66015625 0.1953125 C26.66015625 1.5153125 26.66015625 2.8353125 26.66015625 4.1953125 C25.88929688 4.17210937 25.1184375 4.14890625 24.32421875 4.125 C23.32132813 4.10695313 22.3184375 4.08890625 21.28515625 4.0703125 C20.28742188 4.04710937 19.2896875 4.02390625 18.26171875 4 C15.49753452 3.92314402 15.49753452 3.92314402 13.66015625 6.1953125 C11.10424805 6.71020508 11.10424805 6.71020508 7.859375 7.08984375 C6.66497803 7.23784424 5.47058105 7.38584473 4.23999023 7.53833008 C2.95552002 7.69325928 1.6710498 7.84818848 0.34765625 8.0078125 C-25.34483462 11.30482374 -49.49394075 17.78259249 -72.33984375 30.1953125 C-72.94521973 30.51612793 -73.5505957 30.83694336 -74.17431641 31.16748047 C-95.60415979 42.55009758 -113.33772836 57.9724198 -121.45703125 81.421875 C-126.67156668 103.71055299 -117.37826064 122.61589242 -107.40234375 141.8828125 C-103.03580561 150.64600284 -101.64213674 160.33696201 -104.02734375 169.97265625 C-109.84002327 185.69111045 -123.04292779 194.94185158 -137.69140625 201.75390625 C-151.72118604 207.99109217 -165.61268481 211.14465559 -180.66162109 213.71972656 C-184.90219534 214.4727474 -189.12136155 215.32802493 -193.33984375 216.1953125 C-156.48830716 221.62272251 -119.266797 220.10115557 -85.33984375 203.1953125 C-84.31503906 202.69 -83.29023437 202.1846875 -82.234375 201.6640625 C-75.48493978 198.16366575 -68.98801069 194.02764171 -63.71484375 188.48828125 C-62.33984375 187.1953125 -62.33984375 187.1953125 -60.33984375 187.1953125 C-59.92025391 186.31746094 -59.92025391 186.31746094 -59.4921875 185.421875 C-58.41724416 183.34486583 -57.21952051 181.49888906 -55.90234375 179.5703125 C-49.91239761 170.00057606 -49.08798039 160.18597359 -51.46484375 149.3203125 C-54.28157205 139.15672606 -59.21196223 131.01507017 -65.71679688 122.85986328 C-71.45285601 115.64162398 -75.81532707 108.8556438 -75.60546875 99.39453125 C-74.39362817 89.36120412 -66.86121179 81.78002885 -59.28515625 75.7734375 C-39.3596743 61.18886881 -15.41069443 55.04462964 8.66015625 51.1953125 C10.04352173 50.92944336 10.04352173 50.92944336 11.45483398 50.65820312 C15.09319447 50.13277609 18.570035 50.08295201 22.24609375 50.09765625 C22.9478775 50.0990712 23.64966125 50.10048615 24.37271118 50.10194397 C26.59357129 50.1074996 28.81432709 50.12004358 31.03515625 50.1328125 C32.5494777 50.13783324 34.06380075 50.14239514 35.578125 50.14648438 C39.27216877 50.15745443 42.96615231 50.17468801 46.66015625 50.1953125 C44.07597601 51.52563226 41.49772545 52.68756668 38.78125 53.71875 C10.13087289 64.93352926 -11.56105066 82.39189244 -24.96484375 110.6171875 C-31.07067942 124.84378461 -33.72235109 139.36508069 -34.01293945 154.81494141 C-34.3645182 171.10957267 -40.27028851 186.76676911 -51.46484375 198.8203125 C-54.73882019 201.8929282 -58.36185244 204.48908106 -62.02734375 207.0703125 C-62.58631348 207.46428223 -63.1452832 207.85825195 -63.72119141 208.26416016 C-66.52640456 210.17546891 -68.95174603 211.6842126 -72.33984375 212.1953125 C-72.33984375 213.1853125 -72.33984375 214.1753125 -72.33984375 215.1953125 C-82.98943519 219.16242975 -82.98943519 219.16242975 -87.27734375 220.2578125 C-90.24545749 221.16641875 -92.02880572 222.16159903 -94.33984375 224.1953125 C-92.68984375 224.5253125 -91.03984375 224.8553125 -89.33984375 225.1953125 C-89.33984375 225.5253125 -89.33984375 225.8553125 -89.33984375 226.1953125 C-49.72871086 226.80529204 -8.36642854 226.94748941 23.66015625 200.1953125 C24.44648438 199.58300781 25.2328125 198.97070312 26.04296875 198.33984375 C47.27972621 180.987859 54.39184964 153.12919262 57.66015625 127.1953125 C57.99015625 127.1953125 58.32015625 127.1953125 58.66015625 127.1953125 C58.77671674 135.96716355 58.86520543 144.73874239 58.91921711 153.51120281 C58.94515828 157.58595594 58.98026685 161.6601739 59.03735352 165.73461914 C59.09223426 169.67691513 59.12169272 173.61870095 59.13454247 177.56134987 C59.1436831 179.05508249 59.16152861 180.54879158 59.18880653 182.04230309 C59.41315973 194.85163201 57.17963767 206.1469418 48.65625 216.13671875 C37.37643568 227.76971708 23.36555263 233.10405211 7.28179228 233.43069422 C2.91598368 233.47659439 -1.44918709 233.47634962 -5.81518555 233.4699707 C-7.78557528 233.47432293 -9.75596332 233.47950777 -11.72634888 233.48545837 C-17.0545884 233.49880018 -22.38275678 233.49943275 -27.71100974 233.49689507 C-32.16456571 233.49582275 -36.61810743 233.50071506 -41.07166034 233.5055005 C-51.57651169 233.51657757 -62.08132728 233.51704228 -72.58618164 233.51098633 C-83.41763553 233.5049382 -94.2489598 233.51728299 -105.08039159 233.5385564 C-114.39103735 233.55616939 -123.70164184 233.56217449 -133.01230365 233.55891865 C-138.56857351 233.55710623 -144.12475074 233.55973858 -149.68100548 233.57363319 C-154.90218344 233.58620304 -160.12315882 233.58427536 -165.34433365 233.57122231 C-167.25873317 233.56885569 -169.17314693 233.57159424 -171.08753014 233.57984543 C-173.70346046 233.59030669 -176.31871009 233.58221751 -178.93461609 233.5695343 C-179.68948561 233.57690859 -180.44435513 233.58428287 -181.22209948 233.59188062 C-186.39347514 233.53923757 -189.83187776 232.55221977 -194.33984375 230.1953125 C-198.43180114 225.88798893 -199.45249941 222.61664038 -199.54516602 216.78344727 C-199.56510117 215.65932938 -199.58503632 214.53521149 -199.60557556 213.37702942 C-199.62229813 212.1427269 -199.63902069 210.90842438 -199.65625 209.63671875 C-199.67712173 208.33703659 -199.69799347 207.03735443 -199.71949768 205.69828796 C-199.77587264 202.12963774 -199.82521132 198.56092313 -199.87247467 194.99214172 C-199.90230252 192.76089694 -199.93371463 190.52967938 -199.96551514 188.29846191 C-200.28829384 165.42979045 -200.44626811 142.56170839 -200.46278 119.69080734 C-200.46484007 117.44931431 -200.46859786 115.20782927 -200.47268677 112.96633911 C-200.47962838 108.77701808 -200.4769898 104.58776228 -200.47265625 100.3984375 C-200.47463516 99.15970383 -200.47661407 97.92097015 -200.47865295 96.6446991 C-200.46351841 91.05725437 -200.35109911 85.6964613 -199.33984375 80.1953125 C-198.67984375 80.1953125 -198.01984375 80.1953125 -197.33984375 80.1953125 C-197.33984375 85.1453125 -197.33984375 90.0953125 -197.33984375 95.1953125 C-190.78976306 89.65293653 -184.75332743 83.70135634 -178.72998047 77.60253906 C-167.98735078 66.72784333 -156.60122895 57.2869395 -144.33984375 48.1953125 C-143.36273438 47.46699219 -142.385625 46.73867188 -141.37890625 45.98828125 C-136.84134589 42.70320206 -132.28136638 40.04112311 -127.2265625 37.63671875 C-123.57737743 35.81459522 -120.06490712 33.78589858 -116.52734375 31.7578125 C-106.4426515 26.03977313 -96.57706116 21.31704965 -85.33203125 18.32421875 C-80.47100648 16.99859809 -75.73028274 15.32544785 -70.96484375 13.6953125 C-59.06789276 9.6770664 -47.34811939 5.92250583 -34.6953125 5.46875 C-32.07176542 5.34524424 -32.07176542 5.34524424 -29.33984375 3.1953125 C-27.6737247 3.1525915 -26.0060149 3.15467418 -24.33984375 3.1953125 C-23.67984375 3.0303125 -23.01984375 2.8653125 -22.33984375 2.6953125 C-20.33984375 2.1953125 -20.33984375 2.1953125 -18.02734375 2.2578125 C-15.21742853 2.31719866 -15.21742853 2.31719866 -12.19311523 1.20361328 C-7.96182385 0.09639454 -4.33774968 -0.06138396 0 0 Z " fill="#4F45EA" transform="translate(204.33984375,15.8046875)"/>
<path d="M0 0 C1.75908691 -0.02658691 1.75908691 -0.02658691 3.55371094 -0.05371094 C4.65102539 -0.05274414 5.74833984 -0.05177734 6.87890625 -0.05078125 C7.85545166 -0.05376221 8.83199707 -0.05674316 9.83813477 -0.05981445 C13.09545069 0.40674014 14.33314307 0.73850249 16.4375 3.3125 C17.00695617 6.38899336 16.92547583 9.41938828 16.86328125 12.5390625 C16.85834908 13.89419449 16.85834908 13.89419449 16.85331726 15.27670288 C16.84289672 17.18486744 16.82294726 19.09300026 16.79418945 21.00097656 C16.75006594 23.9331182 16.7327495 26.86444232 16.72070312 29.796875 C16.70728157 31.6484494 16.69235929 33.50001367 16.67578125 35.3515625 C16.66839432 36.233815 16.66100739 37.1160675 16.65339661 38.02505493 C16.55577171 44.19422829 16.55577171 44.19422829 15.4375 45.3125 C13.19728215 45.42323393 10.95380365 45.46854721 8.7109375 45.48828125 C7.28367399 45.50805812 5.85642768 45.52910717 4.42919922 45.55126953 C3.67604431 45.56240784 2.9228894 45.57354614 2.14691162 45.58502197 C-33.52714489 46.19595896 -72.38942177 52.91992984 -99.4296875 78.00390625 C-104.61543747 83.6170532 -107.99740487 90.274977 -107.828125 98.01953125 C-106.84543132 106.50248989 -101.9735631 112.74699614 -96.875 119.3046875 C-89.84572817 128.44749039 -83.56376414 138.54764635 -82.5625 150.3125 C-82.46775391 151.38177734 -82.46775391 151.38177734 -82.37109375 152.47265625 C-81.81526156 163.78653074 -86.13483109 173.90094212 -93.5625 182.3125 C-119.45607845 207.49148294 -159.39169178 215.66782627 -194.33251953 215.62158203 C-201.5203166 215.49244398 -208.61621864 214.80076273 -215.75 213.9375 C-216.79631592 213.81157471 -217.84263184 213.68564941 -218.9206543 213.5559082 C-226.30502615 212.56997385 -226.30502615 212.56997385 -228.5625 210.3125 C-227.36258423 210.11672363 -227.36258423 210.11672363 -226.13842773 209.91699219 C-206.56419405 206.69946432 -187.85420955 203.27355086 -169.5625 195.3125 C-168.634375 194.91160156 -167.70625 194.51070312 -166.75 194.09765625 C-154.63492325 188.47550344 -143.50637778 178.96457432 -138.5625 166.3125 C-133.82468124 151.34099273 -140.97801831 138.09134553 -147.60205078 125.18994141 C-155.70904856 109.34275968 -160.42255422 91.35266355 -154.9375 73.75 C-154.19322018 71.91753175 -153.40237271 70.103172 -152.5625 68.3125 C-152.17320312 67.41789062 -151.78390625 66.52328125 -151.3828125 65.6015625 C-147.31717851 57.20566746 -141.10785132 50.82116984 -134.5625 44.3125 C-133.89347656 43.64347656 -133.22445312 42.97445312 -132.53515625 42.28515625 C-97.92958864 10.10273561 -45.49708552 0.42317247 0 0 Z " fill="#DFE0FD" transform="translate(237.5625,20.6875)"/>
<path d="M0 0 C0.33 0 0.66 0 1 0 C1.11656049 8.77185105 1.20504918 17.54342989 1.25906086 26.31589031 C1.28500203 30.39064344 1.3201106 34.4648614 1.37719727 38.53930664 C1.43207801 42.48160263 1.46153647 46.42338845 1.47438622 50.36603737 C1.48352685 51.85976999 1.50137236 53.35347908 1.52865028 54.84699059 C1.75300348 67.65631951 -0.48051858 78.9516293 -9.00390625 88.94140625 C-17.71775663 97.92809734 -28.8910306 104.69783575 -41.70936966 105.12304783 C-43.24009919 105.12724848 -44.77084982 105.12589934 -46.30157471 105.12025452 C-47.14620419 105.12110894 -47.99083368 105.12196337 -48.861058 105.12284368 C-51.69547941 105.12449276 -54.52984184 105.11898644 -57.36425781 105.11352539 C-59.39437865 105.11324337 -61.42449959 105.11340154 -63.45462036 105.1139679 C-68.9707454 105.11425529 -74.48684879 105.10836791 -80.00296879 105.10139394 C-85.76587375 105.09515076 -91.52877919 105.09455584 -97.29168701 105.09336853 C-108.20675972 105.09025807 -119.12182244 105.0820485 -130.03689075 105.07201904 C-142.46238058 105.06084908 -154.8878709 105.05534522 -167.31336451 105.05032361 C-192.87558188 105.03986567 -218.43779038 105.02227171 -244 105 C-239.46229262 100.46229262 -230.11408845 101.87711466 -224.07536316 101.86105347 C-222.8168605 101.8630777 -221.55835785 101.86510193 -220.26171875 101.8671875 C-218.945168 101.86623077 -217.62861725 101.86527405 -216.27217102 101.86428833 C-213.49434221 101.86282076 -210.71654573 101.86493447 -207.9387207 101.86962891 C-204.40884907 101.87530883 -200.87905379 101.8720522 -197.34918499 101.86605644 C-193.94502377 101.86153499 -190.54088212 101.86471911 -187.13671875 101.8671875 C-185.88428879 101.86516327 -184.63185883 101.86313904 -183.34147644 101.86105347 C-176.17179773 101.8799717 -169.12632441 102.20094041 -162 103 C-161.505 101.515 -161.505 101.515 -161 100 C-160.40405533 99.99413376 -159.80811066 99.98826752 -159.19410706 99.98222351 C-152.8479613 99.91702222 -146.50226537 99.83232642 -140.15649414 99.73754883 C-137.80531847 99.7048071 -135.45407373 99.67662771 -133.1027832 99.65356445 C-120.48447474 99.52659796 -108.00428943 99.11434319 -95.46484375 97.625 C-93.9744735 97.44846138 -93.9744735 97.44846138 -92.45399475 97.26835632 C-70.93636962 94.4753801 -50.7150383 86.96226493 -34 73 C-33.21367187 72.38769531 -32.42734375 71.77539062 -31.6171875 71.14453125 C-10.38043004 53.7925465 -3.26830661 25.93388012 0 0 Z " fill="#3C34D5" transform="translate(262,143)"/>
<path d="M0 0 C-1.37942957 4.13828872 -4.18291827 5.13328982 -7.8125 7.125 C-8.44220703 7.48464844 -9.07191406 7.84429687 -9.72070312 8.21484375 C-14.51836314 10.90314432 -14.51836314 10.90314432 -17.13671875 11.4296875 C-20.19054132 12.36440049 -21.83520437 14.71351467 -24 17 C-24.99615683 17.91876616 -26.00174073 18.82739712 -27.015625 19.7265625 C-36.55203449 28.24178941 -44.64206301 36.79653053 -50.5625 48.25 C-50.90966064 48.91161133 -51.25682129 49.57322266 -51.61450195 50.25488281 C-53.78110551 54.68922402 -54.23841486 57.98717466 -54 63 C-54.33 63.99 -54.66 64.98 -55 66 C-54.12085312 68.6569191 -54.12085312 68.6569191 -53 71 C-60.95755291 63.76586099 -67.2344097 54.89031273 -68.4375 44.0625 C-67.94919548 34.42787624 -61.79461732 27.29938282 -55 21 C-44.05201564 12.3200124 -32.25241229 6.60208206 -19.0625 2.125 C-18.14984375 1.8141748 -17.2371875 1.50334961 -16.296875 1.18310547 C-14.99169922 0.75602295 -14.99169922 0.75602295 -13.66015625 0.3203125 C-12.88293213 0.06523926 -12.10570801 -0.18983398 -11.30493164 -0.45263672 C-7.34146003 -1.39386152 -3.88281358 -1.15046328 0 0 Z " fill="#483FEB" transform="translate(197,73)"/>
<path d="M0 0 C1.4977374 0.03574518 2.99559499 0.06678575 4.49353027 0.09295654 C6.61802876 0.13255138 8.74107957 0.19184191 10.8649292 0.25704956 C12.69833862 0.3058728 12.69833862 0.3058728 14.56878662 0.35568237 C19.701758 1.01246232 23.6952722 2.39002852 27.38446045 6.17892456 C30.61463472 11.2036401 31.36237046 15.36892434 31.31246948 21.2766571 C31.31417833 22.02005221 31.31588718 22.76344731 31.31764781 23.52936953 C31.32093673 26.01527368 31.30994898 28.50090669 31.29901123 30.98678589 C31.29844699 32.77075189 31.29876393 34.55471835 31.29989624 36.33868408 C31.30047024 41.17918341 31.28870823 46.01958368 31.27474833 50.86005998 C31.26224888 55.9196054 31.26107109 60.97915307 31.25869751 66.03871155 C31.25248044 75.6185861 31.23606652 85.19841502 31.21599853 94.77826947 C31.19364663 105.6850639 31.18264788 116.5918605 31.17260766 127.49867213 C31.15170051 149.93378157 31.11652008 172.36885051 31.07196045 194.80392456 C30.74196045 194.80392456 30.41196045 194.80392456 30.07196045 194.80392456 C29.74196045 176.32392456 29.41196045 157.84392456 29.07196045 138.80392456 C28.08196045 144.41392456 27.09196045 150.02392456 26.07196045 155.80392456 C23.61102295 162.62423706 23.61102295 162.62423706 22.07196045 165.80392456 C20.19667293 162.05334953 22.79996503 157.51992389 23.9664917 153.67501831 C27.96098849 137.73449947 27.38304454 121.09408533 27.3727417 104.79611206 C27.37663643 102.21400891 27.38097268 99.6319064 27.38572693 97.04980469 C27.39314159 91.67257312 27.39307099 86.29541418 27.38763428 80.91818237 C27.381563 74.71888878 27.39400703 68.51982034 27.41520435 62.3205651 C27.43496734 56.31748496 27.43799297 50.31452271 27.43446922 44.31140518 C27.43498175 41.7717142 27.4402066 39.23201953 27.45028114 36.69234848 C27.46262165 33.15107471 27.45587072 29.61032666 27.4442749 26.06906128 C27.45191864 25.02689957 27.45956238 23.98473785 27.46743774 22.91099548 C27.42533592 17.09172481 26.80080263 12.97050686 24.07196045 7.80392456 C22.75196045 8.79392456 21.43196045 9.78392456 20.07196045 10.80392456 C19.41196045 10.47392456 18.75196045 10.14392456 18.07196045 9.80392456 C16.55238405 9.65268625 15.02723543 9.55510763 13.50164795 9.48751831 C12.60574951 9.44562378 11.70985107 9.40372925 10.7868042 9.36056519 C9.84965576 9.32124878 8.91250732 9.28193237 7.94696045 9.24142456 C7.00207764 9.19824097 6.05719482 9.15505737 5.0836792 9.11056519 C2.74658953 9.00433384 0.40939215 8.9022928 -1.92803955 8.80392456 C-1.92803955 7.48392456 -1.92803955 6.16392456 -1.92803955 4.80392456 C-12.81803955 4.80392456 -23.70803955 4.80392456 -34.92803955 4.80392456 C-34.59803955 3.81392456 -34.26803955 2.82392456 -33.92803955 1.80392456 C-36.23803955 2.13392456 -38.54803955 2.46392456 -40.92803955 2.80392456 C-41.25803955 2.14392456 -41.58803955 1.48392456 -41.92803955 0.80392456 C-27.94240087 -0.01125739 -14.00325826 -0.33890635 0 0 Z " fill="#B8ABFB" transform="translate(232.92803955078125,11.196075439453125)"/>
<path d="M0 0 C0.7500531 0.02142059 1.5001062 0.04284119 2.27288818 0.06491089 C15.81916595 0.46464138 15.81916595 0.46464138 19.625 1.625 C20.3125 4.4375 20.3125 4.4375 20.625 7.625 C19.1875 9.5 19.1875 9.5 17.625 10.625 C16.965 10.295 16.305 9.965 15.625 9.625 C14.1054236 9.47376169 12.58027498 9.37618307 11.0546875 9.30859375 C10.15878906 9.26669922 9.26289063 9.22480469 8.33984375 9.18164062 C7.40269531 9.14232422 6.46554688 9.10300781 5.5 9.0625 C4.55511719 9.01931641 3.61023438 8.97613281 2.63671875 8.93164062 C0.29962908 8.82540928 -2.0375683 8.72336824 -4.375 8.625 C-4.375 7.305 -4.375 5.985 -4.375 4.625 C-15.265 4.625 -26.155 4.625 -37.375 4.625 C-37.045 3.635 -36.715 2.645 -36.375 1.625 C-38.685 1.955 -40.995 2.285 -43.375 2.625 C-43.705 1.965 -44.035 1.305 -44.375 0.625 C-29.54988705 -0.23911245 -14.83677856 -0.4489801 0 0 Z " fill="#B2A1FC" transform="translate(235.375,11.375)"/>
<path d="M0 0 C0.99 0.33 1.98 0.66 3 1 C1.71937515 2.7074998 0.38232443 4.37373596 -1 6 C-1.66 6 -2.32 6 -3 6 C-3.0825 6.680625 -3.165 7.36125 -3.25 8.0625 C-4.03627565 11.14207961 -5.33389316 13.53435765 -6.9609375 16.25 C-8.45326386 18.76339176 -9.71461785 21.3756781 -11 24 C-11.33128906 24.64066406 -11.66257812 25.28132813 -12.00390625 25.94140625 C-14.82540791 31.42823789 -17.13936023 36.14796034 -16.9375 42.4375 C-16.81721138 46.91825117 -18.0808765 49.93145818 -20 54 C-20.39764263 55.98821313 -20.75455166 57.98732362 -21 60 C-25.52210942 53.21683587 -23.79374775 41.15815583 -22.3125 33.3984375 C-21.38729907 30.47634457 -20.30102264 27.77387846 -19 25 C-18.61070313 24.10539062 -18.22140625 23.21078125 -17.8203125 22.2890625 C-13.56586639 13.50325367 -6.8319837 6.8319837 0 0 Z " fill="#EEEFFD" transform="translate(104,64)"/>
<path d="M0 0 C0.33 0 0.66 0 1 0 C1.85785424 12.68398772 2.11941996 25.28840915 2 38 C2.63478271 37.84644043 3.26956543 37.69288086 3.92358398 37.53466797 C10.98538513 35.86688575 17.7725242 35.79609002 25 36 C25 35.34 25 34.68 25 34 C28.69418201 32.768606 31.2056261 33.35567236 35 34 C35 33.34 35 32.68 35 32 C37.1661674 31.37327179 39.33296068 30.74870669 41.5 30.125 C42.14203369 29.9401001 42.78406738 29.7552002 43.44555664 29.56469727 C46.76209083 28.61609897 50.07711149 27.71604546 53.4375 26.9375 C56.15430222 26.22255205 58.30078114 25.46934976 60.8125 24.3125 C64 23 64 23 67 24 C51.12355876 31.2554725 35.88243327 35.5805473 18.67822266 38.52441406 C14.43710348 39.27753167 10.22030191 40.13840268 6 41 C8.97 41.66 11.94 42.32 15 43 C15 43.33 15 43.66 15 44 C14.08476562 43.91621094 13.16953125 43.83242187 12.2265625 43.74609375 C11.03804687 43.64425781 9.84953125 43.54242188 8.625 43.4375 C7.44164062 43.33308594 6.25828125 43.22867188 5.0390625 43.12109375 C2.08101369 42.75846404 2.08101369 42.75846404 0 44 C0 29.48 0 14.96 0 0 Z " fill="#1E1ABF" transform="translate(5,191)"/>
<path d="M0 0 C0 0.33 0 0.66 0 1 C-2.31 1.33 -4.62 1.66 -7 2 C-7 2.66 -7 3.32 -7 4 C-26.47 4 -45.94 4 -66 4 C-65.67 3.01 -65.34 2.02 -65 1 C-57.8324735 0.85577181 -50.66490847 0.71358614 -43.49731445 0.57275391 C-41.06403711 0.52471066 -38.63076862 0.47621693 -36.19750977 0.42724609 C-32.67987316 0.35653258 -29.16220685 0.28749316 -25.64453125 0.21875 C-24.03902153 0.18593933 -24.03902153 0.18593933 -22.40107727 0.15246582 C-14.93325185 0.00871822 -7.46911887 -0.02394146 0 0 Z " fill="#2B23C2" transform="translate(166,242)"/>
<path d="M0 0 C1.32 0.66 2.64 1.32 4 2 C4.02464638 7.82071622 4.0428343 13.64140234 4.05493164 19.4621582 C4.05997267 21.44393441 4.06680538 23.42570689 4.07543945 25.4074707 C4.08751515 28.24952109 4.09323045 31.09152247 4.09765625 33.93359375 C4.10281754 34.82525742 4.10797882 35.71692108 4.11329651 36.63560486 C4.11349177 38.75740601 4.0621003 40.8791078 4 43 C1.82217319 45.17782681 -3.25103078 44.26089916 -6.28515625 44.31640625 C-7.21597519 44.33718735 -8.14679413 44.35796844 -9.1058197 44.37937927 C-12.09130182 44.44497931 -15.07687484 44.50380802 -18.0625 44.5625 C-20.08138976 44.6056753 -22.1002702 44.64928925 -24.11914062 44.69335938 C-29.07933297 44.80067129 -34.03961709 44.90190888 -39 45 C-33.71482746 41.47655164 -27.73046789 41.87663706 -21.53515625 41.90234375 C-20.51789711 41.90446617 -20.51789711 41.90446617 -19.48008728 41.90663147 C-17.34084422 41.91217255 -15.20171075 41.92471347 -13.0625 41.9375 C-11.60091298 41.94252264 -10.13932431 41.9470842 -8.67773438 41.95117188 C-5.11845474 41.96212255 -1.55923809 41.97934555 2 42 C1.88193803 36.33985838 1.75770328 30.67989917 1.62768555 25.02001953 C1.58430999 23.09362496 1.54263686 21.16719129 1.50268555 19.24072266 C1.44504638 16.47546592 1.38133384 13.7104065 1.31640625 10.9453125 C1.29969376 10.0806839 1.28298126 9.2160553 1.26576233 8.32522583 C1.27840104 4.02604148 1.27840104 4.02604148 0 0 Z " fill="#F2EFFD" transform="translate(250,22)"/>
<path d="M0 0 C1.96211518 2.94317277 2.94510794 5.43310065 4.125 8.75 C6.08072582 13.96139996 8.37076277 18.75770646 11.0625 23.625 C17.58196163 35.44313549 22.6643326 48.11429824 19.31640625 61.79296875 C15.08918261 73.10649261 6.19538888 83.13312047 -4.625 88.5625 C-5.73875 89.036875 -6.8525 89.51125 -8 90 C-8 89.34 -8 88.68 -8 88 C-6.34467377 86.98133771 -4.67739862 85.98189187 -3 85 C-2.505 84.01 -2.505 84.01 -2 83 C-0.700625 82.4121875 -0.700625 82.4121875 0.625 81.8125 C5.6208387 79.12954959 10.17108175 75.48675474 12 70 C12.48082031 69.52691406 12.96164063 69.05382812 13.45703125 68.56640625 C17.27530392 64.69013451 18.19718597 58.51116078 18.4375 53.25 C17.93137393 41.39218924 12.36447169 31.24902948 6.97338867 20.95410156 C0 7.54882981 0 7.54882981 0 0 Z " fill="#1412CF" transform="translate(81,124)"/>
<path d="M0 0 C1.65 0.33 3.3 0.66 5 1 C-14.589235 14.05949 -47.45606759 10.42241442 -70 10 C-69.67 9.34 -69.34 8.68 -69 8 C-66.02049185 7.25512296 -63.69507673 6.85647211 -60.66845703 7.48144531 C-55.47427755 8.49081743 -50.13928174 7.94218806 -44.875 7.75 C-43.62847656 7.70552734 -42.38195312 7.66105469 -41.09765625 7.61523438 C-29.55377074 7.12185513 -18.21440413 5.85411637 -7 3 C-4.66905466 2.6503582 -2.33595238 2.31445513 0 2 C0 1.34 0 0.68 0 0 Z " fill="#6459FA" transform="translate(191,233)"/>
<path d="M0 0 C0.66 0 1.32 0 2 0 C2.6875 2.3125 2.6875 2.3125 3 5 C1.5625 6.8125 1.5625 6.8125 0 8 C-0.66 7.67 -1.32 7.34 -2 7 C-3.5195764 6.84876169 -5.04472502 6.75118307 -6.5703125 6.68359375 C-7.46621094 6.64169922 -8.36210937 6.59980469 -9.28515625 6.55664062 C-10.22230469 6.51732422 -11.15945312 6.47800781 -12.125 6.4375 C-13.06988281 6.39431641 -14.01476562 6.35113281 -14.98828125 6.30664062 C-17.32537092 6.20040928 -19.6625683 6.09836824 -22 6 C-22 4.68 -22 3.36 -22 2 C-6.85714286 -0.28571429 -6.85714286 -0.28571429 0 2 C0 1.34 0 0.68 0 0 Z " fill="#A792FE" transform="translate(253,14)"/>
<path d="M0 0 C2 2 2 2 2.24050903 4.29055786 C2.23606781 5.24542084 2.23162659 6.20028381 2.22705078 7.18408203 C2.22689972 8.26505157 2.22674866 9.34602112 2.22659302 10.45974731 C2.21627045 11.63060883 2.20594788 12.80147034 2.1953125 14.0078125 C2.1924826 15.20356903 2.18965271 16.39932556 2.18673706 17.63131714 C2.17551305 21.46264519 2.15040431 25.29374222 2.125 29.125 C2.11497308 31.71744455 2.10584673 34.30989275 2.09765625 36.90234375 C2.07556646 43.26830842 2.04206706 49.63413771 2 56 C1.67 56 1.34 56 1 56 C0.94465088 54.8855249 0.88930176 53.7710498 0.83227539 52.62280273 C0.62491344 48.46475736 0.41329959 44.30693715 0.20043945 40.14916992 C0.10912029 38.35398065 0.01893474 36.55873332 -0.07006836 34.76342773 C-0.19863428 32.1741531 -0.331355 29.58511871 -0.46484375 26.99609375 C-0.50343002 26.20101913 -0.5420163 25.40594452 -0.58177185 24.58677673 C-0.76745093 21.05466321 -1.05192717 17.63778973 -1.5546875 14.13085938 C-2.0285671 10.79915321 -1.75062706 8.34122305 -1.0625 5.0625 C-0.86785156 4.10472656 -0.67320312 3.14695313 -0.47265625 2.16015625 C-0.31667969 1.44730469 -0.16070312 0.73445312 0 0 Z " fill="#4339D8" transform="translate(6,173)"/>
<path d="M0 0 C0.33 0 0.66 0 1 0 C1.85785424 12.68398772 2.11941996 25.28840915 2 38 C4.31 38.33 6.62 38.66 9 39 C8.01 39.66 7.02 40.32 6 41 C8.97 41.66 11.94 42.32 15 43 C15 43.33 15 43.66 15 44 C14.08476562 43.91621094 13.16953125 43.83242187 12.2265625 43.74609375 C11.03804687 43.64425781 9.84953125 43.54242188 8.625 43.4375 C7.44164062 43.33308594 6.25828125 43.22867188 5.0390625 43.12109375 C2.08101369 42.75846404 2.08101369 42.75846404 0 44 C0 29.48 0 14.96 0 0 Z " fill="#2922B1" transform="translate(5,191)"/>
<path d="M0 0 C-3.01557978 2.57976172 -5.28308732 3.46847562 -9.1875 4.0625 C-11.78239347 4.42115656 -11.78239347 4.42115656 -14 5 C-14.33 5.66 -14.66 6.32 -15 7 C-15.69996094 7.13277344 -16.39992187 7.26554687 -17.12109375 7.40234375 C-20.79025427 8.1640555 -23.80461459 9.78390919 -27.0625 11.5625 C-27.71573242 11.91530029 -28.36896484 12.26810059 -29.04199219 12.6315918 C-40.32781337 18.73873292 -40.32781337 18.73873292 -50 27 C-50.66 26.67 -51.32 26.34 -52 26 C-46.52789597 20.8983095 -40.8714703 16.74377521 -34.4375 12.9375 C-33.13401611 12.16043701 -33.13401611 12.16043701 -31.80419922 11.36767578 C-24.45293099 7.07999832 -17.04723255 3.76188969 -9 1 C-7.93523437 0.60039063 -6.87046875 0.20078125 -5.7734375 -0.2109375 C-3 -1 -3 -1 0 0 Z " fill="#A896FE" transform="translate(256,66)"/>
<path d="M0 0 C8.25 0 16.5 0 25 0 C25 0.66 25 1.32 25 2 C25.66 2.33 26.32 2.66 27 3 C22.93974866 3.98430336 19.16370811 4 15 4 C14.01 4.495 14.01 4.495 13 5 C12.34 4.67 11.68 4.34 11 4 C6.45224307 3.79963367 6.45224307 3.79963367 2 4.5625 C-1.10630017 5.24200316 -3.87819237 4.51177174 -7 4 C-8.64479119 3.80356793 -10.29068405 3.616164 -11.9375 3.4375 C-13.09572266 3.31181641 -13.09572266 3.31181641 -14.27734375 3.18359375 C-15.13005859 3.09271484 -15.13005859 3.09271484 -16 3 C-16 2.67 -16 2.34 -16 2 C-10.72 2 -5.44 2 0 2 C0 1.34 0 0.68 0 0 Z " fill="#A293FB" transform="translate(137,11)"/>
<path d="M0 0 C-1.98 0.33 -3.96 0.66 -6 1 C-6 1.66 -6 2.32 -6 3 C-6.56396484 3.16604736 -7.12792969 3.33209473 -7.70898438 3.50317383 C-10.30688888 4.26993864 -12.90344125 5.04119077 -15.5 5.8125 C-16.386875 6.07353516 -17.27375 6.33457031 -18.1875 6.60351562 C-22.33084224 7.83737857 -26.40797855 9.1179364 -30.4375 10.6875 C-33.92368733 11.97188481 -36.32736654 12.27544751 -40 12 C-39 10 -39 10 -36.85791016 9.08618164 C-35.92769043 8.78059326 -34.9974707 8.47500488 -34.0390625 8.16015625 C-33.00910156 7.81919922 -31.97914063 7.47824219 -30.91796875 7.12695312 C-29.83128906 6.77568359 -28.74460938 6.42441406 -27.625 6.0625 C-26.57699219 5.71509766 -25.52898437 5.36769531 -24.44921875 5.00976562 C-19.31051453 3.32333056 -14.151914 1.70187238 -8.9609375 0.18359375 C-7.67002197 -0.19647827 -7.67002197 -0.19647827 -6.35302734 -0.58422852 C-3.8635127 -1.02411682 -2.37179522 -0.80556061 0 0 Z " fill="#5D4AFB" transform="translate(185,25)"/>
<path d="M0 0 C8.58 0 17.16 0 26 0 C25.67 0.66 25.34 1.32 25 2 C27.64 2.33 30.28 2.66 33 3 C33 3.33 33 3.66 33 4 C24.42 4 15.84 4 7 4 C7.33 3.01 7.66 2.02 8 1 C5.69 1.33 3.38 1.66 1 2 C0.67 1.34 0.34 0.68 0 0 Z " fill="#A391FB" transform="translate(191,12)"/>
<path d="M0 0 C1.03833984 0.00193359 2.07667969 0.00386719 3.14648438 0.00585938 C4.22607422 0.01810547 5.30566406 0.03035156 6.41796875 0.04296875 C7.48595703 0.04361328 8.55394531 0.04425781 9.65429688 0.04492188 C15.07123045 0.07507178 20.27001289 0.27906792 25.60546875 1.23046875 C25.60546875 1.56046875 25.60546875 1.89046875 25.60546875 2.23046875 C20.12660292 3.37720811 14.79898439 3.37899769 9.23046875 3.35546875 C8.32296875 3.35933594 7.41546875 3.36320313 6.48046875 3.3671875 C1.09681146 3.35943007 -4.06806307 3.0163411 -9.39453125 2.23046875 C-6.15067672 0.30777888 -3.74833564 -0.01638511 0 0 Z " fill="#D7D7F6" transform="translate(36.39453125,232.76953125)"/>
<path d="M0 0 C4.95 0 9.9 0 15 0 C12.74199507 2.25800493 10.59017047 2.99937647 7.64038086 4.10717773 C-2.86127727 8.06552189 -11.80085819 13.63313464 -21 20 C-21 19.01 -21 18.02 -21 17 C-19.3203125 15.61328125 -19.3203125 15.61328125 -17.125 14.3125 C-16.40570313 13.87550781 -15.68640625 13.43851563 -14.9453125 12.98828125 C-13 12 -13 12 -11 12 C-11 11.34 -11 10.68 -11 10 C-9.73542969 9.38511719 -9.73542969 9.38511719 -8.4453125 8.7578125 C-7.34960938 8.21898438 -6.25390625 7.68015625 -5.125 7.125 C-4.03445312 6.59132813 -2.94390625 6.05765625 -1.8203125 5.5078125 C1.03882547 4.15464063 1.03882547 4.15464063 3 2 C2.01 1.34 1.02 0.68 0 0 Z " fill="#7362FC" transform="translate(232,67)"/>
<path d="M0 0 C0.33 0 0.66 0 1 0 C1.08694042 4.10403363 1.14037149 8.20783129 1.1875 12.3125 C1.22520508 14.06336914 1.22520508 14.06336914 1.26367188 15.84960938 C1.27333984 16.96787109 1.28300781 18.08613281 1.29296875 19.23828125 C1.3086792 20.26993408 1.32438965 21.30158691 1.34057617 22.36450195 C0.94800263 25.40237389 0.3099381 26.10471265 -2 28 C-3.17574711 30.09989652 -3.17574711 30.09989652 -4 32 C-4.66 32 -5.32 32 -6 32 C-5.73445313 30.94683594 -5.46890625 29.89367187 -5.1953125 28.80859375 C-2.83334265 19.23457892 -1.08466664 9.80481558 0 0 Z " fill="#4C40F0" transform="translate(262,143)"/>
<path d="M0 0 C1.11628784 -0.00676758 1.11628784 -0.00676758 2.25512695 -0.01367188 C7.46263343 0.00038505 12.51967226 0.48220998 17.6875 1.125 C17.6875 1.455 17.6875 1.785 17.6875 2.125 C12.4075 2.125 7.1275 2.125 1.6875 2.125 C1.3575 2.785 1.0275 3.445 0.6875 4.125 C-0.62927734 3.89490234 -0.62927734 3.89490234 -1.97265625 3.66015625 C-7.86125727 2.81892753 -13.81258969 2.76008976 -19.75 2.5625 C-20.95849609 2.51931641 -22.16699219 2.47613281 -23.41210938 2.43164062 C-26.37880606 2.32610596 -29.34557902 2.22399286 -32.3125 2.125 C-32.3125 1.795 -32.3125 1.465 -32.3125 1.125 C-21.54570738 0.54971024 -10.78412545 0.02622545 0 0 Z " fill="#7D76EE" transform="translate(119.3125,10.875)"/>
<path d="M0 0 C2.87821804 4.31732706 2.58391346 7.92810053 2 13 C0.89380603 17.09291769 -0.47763677 21.04457412 -2 25 C-3.85920878 21.88466467 -4.18055956 20.08470177 -3.57421875 16.5234375 C-3.43693359 15.688125 -3.29964844 14.8528125 -3.15820312 13.9921875 C-3.00287109 13.12851563 -2.84753906 12.26484375 -2.6875 11.375 C-2.54376953 10.50359375 -2.40003906 9.6321875 -2.25195312 8.734375 C-1.16709053 2.33418106 -1.16709053 2.33418106 0 0 Z " fill="#D9D9FA" transform="translate(153,168)"/>
<path d="M0 0 C3.96 0 7.92 0 12 0 C12 0.66 12 1.32 12 2 C20.58 2 29.16 2 38 2 C34.14705171 3.92647414 33.02536946 4.10593078 29 4 C28.01 4.495 28.01 4.495 27 5 C24.6663744 4.66871898 22.33309851 4.33497298 20 4 C16.53546164 3.9071102 13.07288798 4.02266852 9.609375 4.12695312 C5.82347594 4.18790036 4.23796586 4.15864391 1 2 C0.67 1.34 0.34 0.68 0 0 Z " fill="#A79CFA" transform="translate(75,11)"/>
<path d="M0 0 C0.495 0.99 0.495 0.99 1 2 C-5.75 6 -5.75 6 -8 6 C-8 6.66 -8 7.32 -8 8 C-21.86 12.455 -21.86 12.455 -36 17 C-36.33 16.34 -36.66 15.68 -37 15 C-36.44763672 14.82984375 -35.89527344 14.6596875 -35.32617188 14.484375 C-22.94358569 10.62699935 -11.39608171 6.20578707 0 0 Z " fill="#1412BA" transform="translate(127,215)"/>
<path d="M0 0 C0.77923828 0.00451172 1.55847656 0.00902344 2.36132812 0.01367188 C4.26175268 0.02533092 6.16213706 0.04326123 8.0625 0.0625 C3.32563716 2.61153077 -1.3885697 2.88179147 -6.6875 3.5 C-10.07222745 3.86005298 -10.07222745 3.86005298 -12.9375 6.0625 C-15.625 5.6875 -15.625 5.6875 -17.9375 5.0625 C-17.9375 3.0625 -17.9375 3.0625 -15.9375 1.0625 C-10.61384578 -0.01579429 -5.40210138 -0.06017765 0 0 Z " fill="#6254F8" transform="translate(221.9375,66.9375)"/>
<path d="M0 0 C0.66 0.33 1.32 0.66 2 1 C-2.12630642 3.57494315 -6.39046598 5.7341757 -10.75 7.875 C-15.97380927 10.46077371 -21.14174019 13.09707539 -26.203125 15.9921875 C-26.79609375 16.32476562 -27.3890625 16.65734375 -28 17 C-28.69609375 17.39445312 -29.3921875 17.78890625 -30.109375 18.1953125 C-30.73328125 18.46085937 -31.3571875 18.72640625 -32 19 C-32.66 18.67 -33.32 18.34 -34 18 C-25.36742412 12.72753814 -16.70440049 7.65873038 -7.5625 3.3125 C-6.83554932 2.961875 -6.10859863 2.61125 -5.35961914 2.25 C-3.60240681 1.433649 -1.80379446 0.70749536 0 0 Z M-36 19 C-34 20 -34 20 -34 20 Z " fill="#6255FC" transform="translate(109,37)"/>
<path d="M0 0 C0.66 0.66 1.32 1.32 2 2 C1.5153125 2.46148437 1.030625 2.92296875 0.53125 3.3984375 C-7.36731127 11.0843452 -14.03636419 19.12045564 -19 29 C-19.33 28.01 -19.66 27.02 -20 26 C-18.84252044 23.71245488 -17.65887453 21.68833193 -16.25 19.5625 C-15.65167358 18.64283447 -15.65167358 18.64283447 -15.04125977 17.70458984 C-10.68006529 11.20256714 -5.46626806 5.57865862 0 0 Z " fill="#9280FE" transform="translate(203,92)"/>
<path d="M0 0 C0.66 0 1.32 0 2 0 C2.33 7.59 2.66 15.18 3 23 C1.68 23.33 0.36 23.66 -1 24 C-1.02887236 20.18751574 -1.04675492 16.3750593 -1.0625 12.5625 C-1.07087891 11.47388672 -1.07925781 10.38527344 -1.08789062 9.26367188 C-1.09111328 8.22919922 -1.09433594 7.19472656 -1.09765625 6.12890625 C-1.10289307 5.17056885 -1.10812988 4.21223145 -1.11352539 3.22485352 C-1 1 -1 1 0 0 Z " fill="#4F47C8" transform="translate(5,152)"/>
<path d="M0 0 C6.93 0 13.86 0 21 0 C21 0.66 21 1.32 21 2 C21.99 2.33 22.98 2.66 24 3 C16.41 3.33 8.82 3.66 1 4 C0.67 2.68 0.34 1.36 0 0 Z " fill="#A597F9" transform="translate(165,11)"/>
<path d="M0 0 C1.77065989 0.02478373 3.54180616 0.02222628 5.3125 0 C10.29941326 -0.0546511 15.05745518 0.3517974 20 1 C20 1.33 20 1.66 20 2 C9.44 2 -1.12 2 -12 2 C-11.67 1.34 -11.34 0.68 -11 0 C-7.00493602 -1.25559154 -4.06484612 -0.67747435 0 0 Z " fill="#574EF3" transform="translate(133,241)"/>
<path d="M0 0 C1.95427537 3.22271071 2.09425737 5.01320877 1.4375 8.6875 C0.73127422 14.08852213 1.88417378 18.05111833 4 23 C0.0649548 19.41767593 -1.63008897 15.09940607 -2.2578125 9.83984375 C-2.35593836 6.09003412 -2.10353068 3.15529602 0 0 Z " fill="#2923DF" transform="translate(131,109)"/>
<path d="M0 0 C13.6332574 -0.18451025 13.6332574 -0.18451025 20 1 C20 1.33 20 1.66 20 2 C14.76927003 3.46827508 10.46935071 4.10517982 5 4 C3.66457061 4.32483418 2.33038449 4.6550855 1 5 C0.34 4.67 -0.32 4.34 -1 4 C-0.67 2.68 -0.34 1.36 0 0 Z " fill="#8076F4" transform="translate(61,11)"/>
<path d="M0 0 C0.99 0.33 1.98 0.66 3 1 C1.515 2.485 1.515 2.485 0 4 C1.65 4.33 3.3 4.66 5 5 C5 5.33 5 5.66 5 6 C2.72979256 6.19493195 0.45879711 6.38070418 -1.8125 6.5625 C-3.07707031 6.66691406 -4.34164062 6.77132812 -5.64453125 6.87890625 C-9 7 -9 7 -12 6 C-12 5.34 -12 4.68 -12 4 C-11.38511719 3.87882813 -10.77023438 3.75765625 -10.13671875 3.6328125 C-9.32847656 3.46523437 -8.52023438 3.29765625 -7.6875 3.125 C-6.88699219 2.96257812 -6.08648437 2.80015625 -5.26171875 2.6328125 C-2.74698882 2.05521001 -2.74698882 2.05521001 0 0 Z " fill="#3B34D8" transform="translate(105,237)"/>
<path d="M0 0 C0.66 0 1.32 0 2 0 C2 4.95 2 9.9 2 15 C2.66 15.33 3.32 15.66 4 16 C3.67 16.33 3.34 16.66 3 17 C2.76924918 18.34747084 2.58846937 19.70377565 2.4375 21.0625 C2.293125 22.361875 2.14875 23.66125 2 25 C1.67 25 1.34 25 1 25 C1 20.71 1 16.42 1 12 C0.34 11.67 -0.32 11.34 -1 11 C-0.67 7.37 -0.34 3.74 0 0 Z " fill="#685AEE" transform="translate(5,96)"/>
<path d="M0 0 C-0.33 0.66 -0.66 1.32 -1 2 C0.32 2.66 1.64 3.32 3 4 C-3.09781001 4.22084624 -8.21642935 4.01167675 -14 2 C-14 1.67 -14 1.34 -14 1 C-9.32798795 -0.20568053 -4.78503708 -0.09382426 0 0 Z " fill="#E2E1F7" transform="translate(23,230)"/>
<path d="M0 0 C0 0.66 0 1.32 0 2 C0.66 2.33 1.32 2.66 2 3 C-2.06025134 3.98430336 -5.83629189 4 -10 4 C-10.99 4.495 -10.99 4.495 -12 5 C-13.32 3.68 -14.64 2.36 -16 1 C-10.61509359 0.08342019 -5.45769811 -0.11138159 0 0 Z " fill="#8F83F7" transform="translate(162,11)"/>
<path d="M0 0 C-1.98 0.33 -3.96 0.66 -6 1 C-6 1.66 -6 2.32 -6 3 C-8.43578787 3.53030068 -10.87305975 4.04952312 -13.3125 4.5625 C-14.00279297 4.71396484 -14.69308594 4.86542969 -15.40429688 5.02148438 C-18.75544066 5.71761569 -20.69534072 6.10155309 -24 5 C-21.41710408 4.18608745 -18.83371003 3.37382071 -16.25 2.5625 C-15.52039063 2.33240234 -14.79078125 2.10230469 -14.0390625 1.86523438 C-13.33007812 1.64287109 -12.62109375 1.42050781 -11.890625 1.19140625 C-11.24125977 0.98717041 -10.59189453 0.78293457 -9.92285156 0.57250977 C-6.16106654 -0.54752399 -3.82672193 -1.23001776 0 0 Z " fill="#7967FD" transform="translate(185,25)"/>
<path d="M0 0 C-0.33 0.99 -0.66 1.98 -1 3 C-5.95 3.66 -10.9 4.32 -16 5 C-16 4.01 -16 3.02 -16 2 C-10.61972975 0.80911014 -5.54708616 -0.2919519 0 0 Z " fill="#745EFB" transform="translate(203,21)"/>
<path d="M0 0 C0.45374191 5.67177385 -0.34916857 8.5975268 -4 13 C-4.66 13 -5.32 13 -6 13 C-5.55170486 11.01853549 -5.09107502 9.03985789 -4.625 7.0625 C-4.24214844 5.40927734 -4.24214844 5.40927734 -3.8515625 3.72265625 C-3.43003906 2.37494141 -3.43003906 2.37494141 -3 1 C-1 0 -1 0 0 0 Z " fill="#564AF5" transform="translate(262,162)"/>
<path d="M0 0 C0.33 0 0.66 0 1 0 C1 1.65 1 3.3 1 5 C0.1646875 5.3403125 0.1646875 5.3403125 -0.6875 5.6875 C-3.6469509 7.36718835 -5.66126784 9.54133285 -8 12 C-9 13 -10 14 -11 15 C-11.66 14.67 -12.32 14.34 -13 14 C-12.0479279 12.99403703 -11.08812654 11.99538437 -10.125 11 C-9.32449219 10.1646875 -9.32449219 10.1646875 -8.5078125 9.3125 C-7 8 -7 8 -5 8 C-4.731875 7.4225 -4.46375 6.845 -4.1875 6.25 C-2.97790559 3.95813691 -1.64363461 2.00094648 0 0 Z " fill="#201ECF" transform="translate(149,195)"/>
<path d="M0 0 C3.34163899 1.38274717 5.25766748 2.79044009 7 6 C6.6875 8.75 6.6875 8.75 6 11 C3.27698513 8.27698513 1.82192021 5.40091772 0 2 C0 1.34 0 0.68 0 0 Z " fill="#B4A5FB" transform="translate(255,14)"/>
<path d="M0 0 C0.33 0.66 0.66 1.32 1 2 C-5.75 6 -5.75 6 -8 6 C-8 6.66 -8 7.32 -8 8 C-9.65 8.33 -11.3 8.66 -13 9 C-12 6 -12 6 -9.27734375 4.39453125 C-8.17519531 3.87246094 -7.07304688 3.35039062 -5.9375 2.8125 C-4.83277344 2.28269531 -3.72804688 1.75289062 -2.58984375 1.20703125 C-1.73519531 0.80871094 -0.88054687 0.41039062 0 0 Z " fill="#2623C9" transform="translate(127,215)"/>
<path d="M0 0 C3.63 0 7.26 0 11 0 C10.67 0.99 10.34 1.98 10 3 C8.35 3.33 6.7 3.66 5 4 C5 3.34 5 2.68 5 2 C3.02 2.33 1.04 2.66 -1 3 C-0.67 2.01 -0.34 1.02 0 0 Z " fill="#5E52F7" transform="translate(192,71)"/>
<path d="M0 0 C-2.12121657 2.33333823 -4.01594365 3.9148886 -7 5 C-9.25 4.625 -9.25 4.625 -11 4 C-8.32997607 0.73663741 -4.08378642 -2.04189321 0 0 Z " fill="#5C4CF9" transform="translate(142,39)"/>
<path d="M0 0 C0.99 0.33 1.98 0.66 3 1 C2.34 2.98 1.68 4.96 1 7 C0.01 7 -0.98 7 -2 7 C-2 5.35 -2 3.7 -2 2 C-1.34 2 -0.68 2 0 2 C0 1.34 0 0.68 0 0 Z " fill="#5D56D3" transform="translate(257,218)"/>
<path d="M0 0 C0.66 0 1.32 0 2 0 C2 4 2 4 0 6.0625 C-0.66 6.701875 -1.32 7.34125 -2 8 C-2 8.99 -2 9.98 -2 11 C-2.99 11 -3.98 11 -5 11 C-3.78065514 6.96678237 -2.44045073 3.45730521 0 0 Z " fill="#7870EA" transform="translate(15,36)"/>
<path d="M0 0 C2.97 0.495 2.97 0.495 6 1 C0.77468437 4.48354375 -4.8131337 5.30934332 -11 5 C-8.5132579 3.5653411 -6.6883811 2.9511186 -3.8125 2.5 C-2.4203125 2.2525 -2.4203125 2.2525 -1 2 C-0.67 1.34 -0.34 0.68 0 0 Z " fill="#3B34CE" transform="translate(89,230)"/>
<path d="M0 0 C5.61 0 11.22 0 17 0 C13.14705171 1.92647414 12.02536946 2.10593078 8 2 C7.01 2.495 7.01 2.495 6 3 C3.98072489 2.39421747 1.97746603 1.73080266 0 1 C0 0.67 0 0.34 0 0 Z " fill="#A08FFE" transform="translate(96,13)"/>
<path d="M0 0 C0.99 0.33 1.98 0.66 3 1 C3 1.99 3 2.98 3 4 C4.65 4.33 6.3 4.66 8 5 C7.67 5.99 7.34 6.98 7 8 C3.64379729 6.61122646 1.92701272 5.08322035 0 2 C0 1.34 0 0.68 0 0 Z " fill="#6E6AC5" transform="translate(6,239)"/>
<path d="M0 0 C-5.445 2.475 -5.445 2.475 -11 5 C-11 4.01 -11 3.02 -11 2 C-4.5 -1.125 -4.5 -1.125 0 0 Z " fill="#F1F0FB" transform="translate(155,37)"/>
<path d="M0 0 C0.99 0.33 1.98 0.66 3 1 C1.71937515 2.7074998 0.38232443 4.37373596 -1 6 C-1.66 6 -2.32 6 -3 6 C-3 6.66 -3 7.32 -3 8 C-3.66 7.67 -4.32 7.34 -5 7 C-3.70700306 4.11562221 -2.34058637 2.12780579 0 0 Z " fill="#F8F8FD" transform="translate(104,64)"/>
<path d="M0 0 C1.8125 0.125 1.8125 0.125 4 1 C5.8125 3.9375 5.8125 3.9375 7 7 C6.67 7.66 6.34 8.32 6 9 C4.99406757 7.8803014 3.9954151 6.7540588 3 5.625 C2.443125 4.99851563 1.88625 4.37203125 1.3125 3.7265625 C0 2 0 2 0 0 Z " fill="#2924DF" transform="translate(137,135)"/>
<path d="M0 0 C0.33 0.66 0.66 1.32 1 2 C-4.625 7 -4.625 7 -8 7 C-6.5361389 2.60841671 -4.02168662 2.12052567 0 0 Z " fill="#EEEEFB" transform="translate(125,49)"/>
<path d="M0 0 C0.33 0.66 0.66 1.32 1 2 C2.89533342 2.46523063 2.89533342 2.46523063 5.0625 2.625 C6.361875 2.74875 7.66125 2.8725 9 3 C9 3.33 9 3.66 9 4 C5.37 4 1.74 4 -2 4 C-1.34 2.68 -0.68 1.36 0 0 Z " fill="#B29EFD" transform="translate(217,11)"/>
<path d="M0 0 C1.65 0 3.3 0 5 0 C5 0.66 5 1.32 5 2 C5.66 2.33 6.32 2.66 7 3 C4.08517222 3.80967438 2.53886783 4.21845993 -0.3125 3.0625 C-0.869375 2.711875 -1.42625 2.36125 -2 2 C-1.34 2 -0.68 2 0 2 C0 1.34 0 0.68 0 0 Z " fill="#A497FA" transform="translate(157,11)"/>
<path d="M0 0 C1.65 0 3.3 0 5 0 C4.67 0.66 4.34 1.32 4 2 C5.32 2.66 6.64 3.32 8 4 C5.69 4 3.38 4 1 4 C0.67 2.68 0.34 1.36 0 0 Z " fill="#F6F6FA" transform="translate(18,230)"/>
<path d="M0 0 C0.99 0 1.98 0 3 0 C2 3 2 3 0.15234375 4.16796875 C-0.57855469 4.50441406 -1.30945313 4.84085938 -2.0625 5.1875 C-2.79597656 5.53167969 -3.52945313 5.87585938 -4.28515625 6.23046875 C-5.13400391 6.61138672 -5.13400391 6.61138672 -6 7 C-6 6.34 -6 5.68 -6 5 C-4.34467377 3.98133771 -2.67739862 2.98189187 -1 2 C-0.67 1.34 -0.34 0.68 0 0 Z " fill="#1A19C2" transform="translate(79,207)"/>
<path d="M0 0 C0 1.98 0 3.96 0 6 C-1.32 6.33 -2.64 6.66 -4 7 C-4.1875 4.625 -4.1875 4.625 -4 2 C-1 0 -1 0 0 0 Z " fill="#6961D9" transform="translate(8,169)"/>
<path d="M0 0 C1.65 0.33 3.3 0.66 5 1 C4.01 2.485 4.01 2.485 3 4 C1.35 3.67 -0.3 3.34 -2 3 C-1.34 2.67 -0.68 2.34 0 2 C0 1.34 0 0.68 0 0 Z " fill="#6254F8" transform="translate(213,67)"/>
<path d="M0 0 C-2.39763185 2.39763185 -3.33273498 2.34280586 -6.625 2.625 C-7.44226563 2.69976562 -8.25953125 2.77453125 -9.1015625 2.8515625 C-9.72804687 2.90054688 -10.35453125 2.94953125 -11 3 C-7.74003139 -0.25996861 -4.40088745 -1.46696248 0 0 Z " fill="#9B88FE" transform="translate(256,66)"/>
<path d="M0 0 C-3.3 1.32 -6.6 2.64 -10 4 C-10 3.01 -10 2.02 -10 1 C-5.8922935 -0.58706842 -4.40767604 -1.10191901 0 0 Z " fill="#F6F4FC" transform="translate(169,32)"/>
<path d="M0 0 C-0.33 0.99 -0.66 1.98 -1 3 C-3.97 2.67 -6.94 2.34 -10 2 C-6.00889681 0.0044484 -4.30013434 -0.19546065 0 0 Z " fill="#8E7DFD" transform="translate(203,21)"/>
<path d="M0 0 C0.66 0 1.32 0 2 0 C1.67 0.99 1.34 1.98 1 3 C0.67 2.01 0.34 1.02 0 0 Z " fill="#FEFEFF" transform="translate(261,16)"/>
<path d="M0 0 C1.98 0.99 1.98 0.99 4 2 C2.68 2 1.36 2 0 2 C0 1.34 0 0.68 0 0 Z " fill="#FEFEFF" transform="translate(243,9)"/>
<path d="M0 0 C0.33 0.66 0.66 1.32 1 2 C0.34 1.67 -0.32 1.34 -1 1 C-0.67 0.67 -0.34 0.34 0 0 Z " fill="#FEFEFF" transform="translate(254,10)"/>
<path d="" fill="#FFFFFF" transform="translate(0,0)"/>
<path d="M0 0 C2 1 2 1 2 1 Z " fill="#FEFEFF" transform="translate(55,10)"/>
<path d="" fill="#FEFEFE" transform="translate(0,0)"/>
<path d="" fill="#FEFEFF" transform="translate(0,0)"/>
<path d="" fill="#FEFEFF" transform="translate(0,0)"/>
<path d="" fill="#FEFEFE" transform="translate(0,0)"/>
<path d="" fill="#FEFEFE" transform="translate(0,0)"/>
<path d="" fill="#FEFEFF" transform="translate(0,0)"/>
<path d="" fill="#FEFEFE" transform="translate(0,0)"/>
<path d="" fill="#FEFEFF" transform="translate(0,0)"/>
<path d="" fill="#FDFDFE" transform="translate(0,0)"/>
<path d="" fill="#FEFEFF" transform="translate(0,0)"/>
<path d="" fill="#FEFEFF" transform="translate(0,0)"/>
<path d="" fill="#FEFEFF" transform="translate(0,0)"/>
<path d="" fill="#FEFEFF" transform="translate(0,0)"/>
<path d="" fill="#FEFEFF" transform="translate(0,0)"/>
<path d="" fill="#FEFEFF" transform="translate(0,0)"/>
<path d="" fill="#FEFEFF" transform="translate(0,0)"/>
<path d="" fill="#FEFEFF" transform="translate(0,0)"/>
<path d="" fill="#FEFEFF" transform="translate(0,0)"/>
<path d="" fill="#FEFEFF" transform="translate(0,0)"/>
<path d="" fill="#FEFEFF" transform="translate(0,0)"/>
<path d="" fill="#FEFEFF" transform="translate(0,0)"/>
<path d="" fill="#FEFEFF" transform="translate(0,0)"/>
<path d="" fill="#FFFEFF" transform="translate(0,0)"/>
<path d="" fill="#FEFEFF" transform="translate(0,0)"/>
<path d="" fill="#FFFFFF" transform="translate(0,0)"/>
<path d="" fill="#FFFFFF" transform="translate(0,0)"/>
<path d="" fill="#FFFFFF" transform="translate(0,0)"/>
<path d="" fill="#FEFEFF" transform="translate(0,0)"/>
<path d="" fill="#FEFEFF" transform="translate(0,0)"/>
<path d="" fill="#FFFFFF" transform="translate(0,0)"/>
<path d="" fill="#FFFFFF" transform="translate(0,0)"/>
<path d="" fill="#FFFFFF" transform="translate(0,0)"/>
<path d="" fill="#FFFFFF" transform="translate(0,0)"/>
<path d="" fill="#FFFFFF" transform="translate(0,0)"/>
<path d="" fill="#FEFEFF" transform="translate(0,0)"/>
<path d="" fill="#FFFFFF" transform="translate(0,0)"/>
<path d="" fill="#FFFFFF" transform="translate(0,0)"/>
<path d="" fill="#FEFEFF" transform="translate(0,0)"/>
<path d="" fill="#FEFEFF" transform="translate(0,0)"/>
<path d="" fill="#FEFEFF" transform="translate(0,0)"/>
<path d="" fill="#FFFFFF" transform="translate(0,0)"/>
<path d="" fill="#FFFEFF" transform="translate(0,0)"/>
<path d="" fill="#FDFDFF" transform="translate(0,0)"/>
<path d="" fill="#FFFEFF" transform="translate(0,0)"/>
<path d="" fill="#FFFEFF" transform="translate(0,0)"/>
<path d="" fill="#FEFEFF" transform="translate(0,0)"/>
<path d="" fill="#FEFEFF" transform="translate(0,0)"/>
<path d="" fill="#FEFEFF" transform="translate(0,0)"/>
<path d="" fill="#FEFEFF" transform="translate(0,0)"/>
<path d="" fill="#FFFFFF" transform="translate(0,0)"/>
<path d="" fill="#FFFFFF" transform="translate(0,0)"/>
<path d="" fill="#FEFEFF" transform="translate(0,0)"/>
<path d="" fill="#FEFEFF" transform="translate(0,0)"/>
<path d="" fill="#FFFFFF" transform="translate(0,0)"/>
<path d="" fill="#FFFFFF" transform="translate(0,0)"/>
<path d="" fill="#FFFFFF" transform="translate(0,0)"/>
<path d="" fill="#FFFFFF" transform="translate(0,0)"/>
<path d="" fill="#FEFEFF" transform="translate(0,0)"/>
<path d="" fill="#FFFFFF" transform="translate(0,0)"/>
<path d="" fill="#FFFFFF" transform="translate(0,0)"/>
</svg>
